<?xml version="1.0" encoding="utf-8"?>
<!-- Generator: Adobe Illustrator 15.1.0, SVG Export Plug-In . SVG Version: 6.00 Build 0)  -->
<!DOCTYPE svg PUBLIC "-//W3C//DTD SVG 1.1//EN" "http://www.w3.org/Graphics/SVG/1.1/DTD/svg11.dtd">
<svg version="1.1" id="Layer_1" xmlns="http://www.w3.org/2000/svg" xmlns:xlink="http://www.w3.org/1999/xlink" x="0px" y="0px"
	 width="133px" height="133px" viewBox="0 0 133 133" enable-background="new 0 0 133 133" xml:space="preserve">
<g>
	<rect x="10.329" y="47.324" fill="#FFFFFF" width="108.583" height="45.707"/>
	<g>
		<polygon fill="#E6332A" points="50.401,76.144 62.862,76.144 56.778,62.196 		"/>
		<path fill="#E6332A" d="M66.5,1.865C30.803,1.865,1.864,30.804,1.864,66.5c0,35.698,28.939,64.635,64.636,64.635
			c35.695,0,64.637-28.937,64.637-64.635C131.137,30.804,102.195,1.865,66.5,1.865z M28.59,91.925h-6.19V56.723h-9.432v-5.817
			h25.027v5.817H28.59V91.925z M69.691,91.925l-4.305-9.963H47.825l-4.57,9.963h-6.668l20.298-43.598l19.581,43.598H69.691z
			 M116.689,80.102c-0.709,2.198-1.904,4.252-3.588,6.165c-3.807,4.286-8.652,6.429-14.531,6.429c-5.74,0-10.654-2.071-14.746-6.217
			c-4.092-4.162-6.137-9.156-6.137-14.983c0-5.952,2.08-10.999,6.242-15.145c4.162-4.162,9.229-6.243,15.197-6.243
			c3.207,0,6.199,0.652,8.98,1.957c2.658,1.306,5.27,3.425,7.838,6.358l-4.41,4.226c-3.367-4.481-7.467-6.723-12.301-6.723
			c-4.34,0-7.98,1.497-10.92,4.49c-2.939,2.94-4.41,6.624-4.41,11.053c0,4.568,1.637,8.333,4.914,11.29
			c3.064,2.746,6.387,4.119,9.965,4.119c3.045,0,5.781-1.024,8.209-3.074c2.426-2.066,3.781-4.54,4.064-7.421h-10.229v-5.817h16.951
			v1.354C117.779,75.002,117.414,77.729,116.689,80.102z"/>
	</g>
</g>
</svg>
